<?xml version="1.0" encoding="UTF-8" standalone="no"?>
<svg
   xmlns:dc="http://purl.org/dc/elements/1.1/"
   xmlns:cc="http://creativecommons.org/ns#"
   xmlns:rdf="http://www.w3.org/1999/02/22-rdf-syntax-ns#"
   xmlns:svg="http://www.w3.org/2000/svg"
   xmlns="http://www.w3.org/2000/svg"
   xmlns:sodipodi="http://sodipodi.sourceforge.net/DTD/sodipodi-0.dtd"
   xmlns:inkscape="http://www.inkscape.org/namespaces/inkscape"
   width="131.25"
   height="65.25"
   viewBox="0 0 105 52.2"
   version="1.1"
   id="svg2"
   inkscape:version="0.48.2 r9819"
   sodipodi:docname="logo-bottom.svg">
  <metadata
     id="metadata14">
    <rdf:RDF>
      <cc:Work
         rdf:about="">
        <dc:format>image/svg+xml</dc:format>
        <dc:type
           rdf:resource="http://purl.org/dc/dcmitype/StillImage" />
      </cc:Work>
    </rdf:RDF>
  </metadata>
  <defs
     id="defs12">
    <filter
       inkscape:collect="always"
       id="filter3797">
      <feGaussianBlur
         inkscape:collect="always"
         stdDeviation="1.0241787"
         id="feGaussianBlur3799" />
    </filter>
    <filter
       inkscape:collect="always"
       id="filter3801"
       x="-0.048449233"
       width="1.0968985"
       y="-0.10481111"
       height="1.2096222">
      <feGaussianBlur
         inkscape:collect="always"
         stdDeviation="1.7619613"
         id="feGaussianBlur3803" />
    </filter>
  </defs>
  <sodipodi:namedview
     pagecolor="#ffffff"
     bordercolor="#666666"
     borderopacity="1"
     objecttolerance="10"
     gridtolerance="10"
     guidetolerance="10"
     inkscape:pageopacity="0"
     inkscape:pageshadow="2"
     inkscape:window-width="866"
     inkscape:window-height="652"
     id="namedview10"
     showgrid="false"
     fit-margin-bottom="0.4"
     inkscape:zoom="4.16"
     inkscape:cx="62.881423"
     inkscape:cy="49.775796"
     inkscape:window-x="0"
     inkscape:window-y="0"
     inkscape:window-maximized="0"
     inkscape:current-layer="svg2" />
  <path
     style="opacity:0.51700003000000005;fill:#666666;fill-opacity:1;filter:url(#filter3801)"
     d="m 23.0625,90.96875 0,16.4375 c 0.812793,1.55176 1.592188,3.19531 3.15625,4.125 11.1125,7.3875 23.11875,13.39376 35.46875,18.40625 2.9,1.275 6.16875,2.0875 9.15625,0.5 13.5,-5.3 26.575,-11.89375 38.5625,-20.09375 0.2125,-0.925 0.63125,-2.7625 0.84375,-3.6875 0.0314,-4.8e-4 0.0624,4.7e-4 0.0937,0 l 0,-15.34375 C 97.577979,101.69682 82.642755,109.51593 67.2812,115.0625 53.41875,110.8 40.475,103.525 28.625,95.1875 26.705449,93.862154 24.848006,92.448898 23.0625,90.96875 z"
     transform="matrix(0.81082554,0,0,0.8,-1.1945306,-54.4)"
     id="path3821"
     inkscape:connector-curvature="0" />
  <path
     d="m 0.15718671,0.1115277 1.71000009,0 C 8.0571869,7.271528 14.367187,14.481528 22.217187,19.901528 c 9.48,6.67 19.83,12.51 30.92,15.92 19.47,-7.03 38.12,-18.63 50.290013,-35.7100003 l 1.73,0 0,28.8600003 c -5.880013,0.21 -11.760013,0.03 -17.650013,0.12 -0.17,0.74 -0.5,2.21 -0.67,2.95 -9.59,6.56 -20.04,11.83 -30.84,16.07 -2.39,1.27 -5.01,0.61 -7.33,-0.41 -9.88,-4.01 -19.48,-8.8 -28.37,-14.71 -1.43,-0.85 -2.04,-2.46 -2.81,-3.84 -5.77,-0.21 -11.5500001,-0.05 -17.33000029,-0.04 l 0,-29.0000003 z"
     id="path4"
     style="fill:#efc34a;fill-opacity:1"
     inkscape:connector-curvature="0" />
  <path
     d="m 1.71,3.2 101.56,0 C 91.1,20.28 72.45,31.88 52.98,38.91 41.89,35.5 31.54,29.66 22.06,22.99 14.21,17.57 7.9,10.36 1.71,3.2 z"
     id="path6"
     inkscape:connector-curvature="0"
     style="opacity:0.51724135000000004;fill:#999999;filter:url(#filter3797)"
     transform="matrix(1.1397999,0,0,1.1111994,-6.9605487,-4.3267663)" />
  <path
     style="fill:#ffffff"
     inkscape:connector-curvature="0"
     id="path2991"
     d="m 2.1357185,0.0362597 101.5600015,0 C 91.525718,17.11626 72.875718,28.71626 53.405718,35.74626 c -11.09,-3.41 -21.44,-9.25 -30.92,-15.92 -7.85,-5.42 -14.1599995,-12.63 -20.3499995,-19.7900003 z" />
</svg>
